<svg width="475" height="99" viewBox="0 0 475 99" fill="none" xmlns="http://www.w3.org/2000/svg">
<g filter="url(#filter0_d_96_138)">
<rect x="6.4624" width="462.119" height="87.3388" rx="43.6694" fill="white" shape-rendering="crispEdges"/>
<rect x="6.84495" y="0.382549" width="461.354" height="86.5737" rx="43.2869" stroke="#E9E9E9" stroke-width="0.765097" shape-rendering="crispEdges"/>
<path d="M75.8879 61.5842L76.2068 61.5879C82.4713 61.7024 88.4664 64.1053 93.0696 68.3239C91.9134 70.5312 89.6012 72.0377 86.9367 72.0377H64.5391C61.8745 72.0377 59.562 70.5312 58.4058 68.3239C63.1659 63.9616 69.4077 61.5463 75.8879 61.5842Z" fill="#6150FF"/>
<path d="M65.3567 54.5935C63.1583 55.2927 61.0347 56.2125 59.0191 57.3396C60.2824 55.6713 62.2847 54.5935 64.5387 54.5935H65.3567Z" fill="#6150FF"/>
<path d="M86.9367 54.5935C89.1906 54.5935 91.1926 55.6714 92.456 57.3396C90.4412 56.213 88.3181 55.2928 86.1194 54.5935H86.9367Z" fill="#6150FF"/>
<path d="M68.9184 56.649C68.9535 56.6412 68.9885 56.6331 69.0235 56.6254L69.3989 56.5453C69.2384 56.5784 69.0783 56.6133 68.9184 56.649Z" fill="#6150FF"/>
<path d="M75.1432 55.9034L74.7547 55.9132C74.884 55.9091 75.0137 55.9058 75.1432 55.9034L75.5318 55.8983C75.4022 55.8991 75.2727 55.9009 75.1432 55.9034Z" fill="#6150FF"/>
<path d="M75.8879 30.1727L76.2068 30.1765C81.2839 30.2692 86.1839 31.8655 90.3096 34.7129C89.3116 35.2712 88.1615 35.5904 86.9367 35.5904H64.5391C63.3141 35.5904 62.1636 35.2714 61.1655 34.7129C65.4625 31.7472 70.5956 30.1418 75.8879 30.1727Z" fill="#6150FF"/>
<path d="M86.9367 15.3027C90.7582 15.3027 93.8561 18.4007 93.8561 22.2222V26.7553C88.6397 23.5042 82.6017 21.6904 76.3636 21.5765L75.9386 21.5714C69.4138 21.5332 63.0702 23.358 57.6193 26.7553V22.2222C57.6193 18.4007 60.7173 15.3028 64.5387 15.3027H86.9367Z" fill="#6150FF"/>
<path d="M68.9184 25.2376C68.9535 25.2298 68.9885 25.2216 69.0235 25.2139L69.3989 25.1339C69.2384 25.167 69.0783 25.2019 68.9184 25.2376Z" fill="#6150FF"/>
<path d="M75.1432 24.4919L74.7547 24.5017C74.884 24.4977 75.0137 24.4944 75.1432 24.4919L75.5318 24.4869C75.4022 24.4877 75.2727 24.4895 75.1432 24.4919Z" fill="#6150FF"/>
<path d="M88.7314 33.7068C90.6359 34.8255 92.404 36.1944 93.9835 37.7926L94.1926 38.0064C98.3363 42.2978 100.841 47.8846 101.31 53.7927C101.232 56.7038 99.5512 59.2146 97.1165 60.4733C91.24 55.7789 83.9498 53.1265 76.3636 52.9879L75.9386 52.9829C68.0647 52.9368 60.4546 55.6037 54.3589 60.4733C51.9242 59.2145 50.2425 56.7036 50.165 53.7924C50.6508 47.6801 53.3142 41.9191 57.7048 37.5797L57.9325 37.3574C59.3984 35.9441 61.0153 34.7222 62.744 33.7068H88.7314Z" fill="#6150FF"/>
<path d="M68.9184 56.649C68.9535 56.6412 68.9885 56.6331 69.0235 56.6254L69.3989 56.5453C69.2384 56.5784 69.0783 56.6133 68.9184 56.649Z" fill="#6150FF"/>
<path d="M75.1432 55.9034L74.7547 55.9132C74.884 55.9091 75.0137 55.9058 75.1432 55.9034L75.5318 55.8983C75.4022 55.8991 75.2727 55.9009 75.1432 55.9034Z" fill="#6150FF"/>
<path d="M131.055 62.1699H124.555V25.7503H139.567C144.21 25.7503 147.563 26.4897 149.626 27.9685C152.274 29.8256 153.598 32.8003 153.598 36.8928C153.598 41.5012 152.051 44.6823 148.956 46.4362C146.548 47.7775 142.937 48.4481 138.123 48.4481H131.055V62.1699ZM131.055 42.8768H137.607C141.183 42.8768 143.625 42.4297 144.932 41.5356C146.17 40.6414 146.789 39.111 146.789 36.9444C146.789 34.9841 146.17 33.5225 144.932 32.5596C144.244 32.0781 143.402 31.7514 142.404 31.5795C141.441 31.4075 139.98 31.3215 138.019 31.3215H131.055V42.8768ZM160.625 62.1699H154.589V36.4801H160.367V40.4523C161.949 37.5978 164.322 36.1706 167.486 36.1706C168.208 36.1706 168.947 36.2738 169.704 36.4801V42.5673C168.775 42.0858 167.813 41.8451 166.815 41.8451C164.752 41.8451 163.135 42.6876 161.966 44.3728C161.072 45.6796 160.625 47.6227 160.625 50.202V62.1699ZM177.668 36.4801V62.1699H171.58V36.4801H177.668ZM177.668 31.4247H171.529V25.7503H177.668V31.4247ZM204.762 62.1699H198.727V47.4163C198.727 45.2841 198.417 43.7709 197.798 42.8768C197.145 41.9139 195.993 41.4324 194.342 41.4324C192.554 41.4324 191.092 42.189 189.957 43.7022C188.96 45.009 188.461 47.0381 188.461 49.7893V62.1699H182.426V36.4801H188.41V40.2975C190.439 37.4431 193.276 36.0159 196.921 36.0159C199.844 36.0159 201.977 37.0304 203.318 39.0594C204.281 40.5038 204.762 42.8424 204.762 46.0751V62.1699ZM221.725 57.2693V62.0668C220.315 62.445 218.819 62.6342 217.237 62.6342C214.761 62.6342 213.007 62.0152 211.975 60.7771C211.013 59.6766 210.531 57.8711 210.531 55.3606V41.3292H206.507V36.4801H210.634V28.1232H216.618V36.4801H221.622V41.3292H216.618V54.1741C216.618 55.4809 216.825 56.4095 217.237 56.9597C217.65 57.4756 218.321 57.7335 219.249 57.7335C220.074 57.7335 220.9 57.5788 221.725 57.2693ZM223.864 36.4801H229.848V40.2975C231.877 37.4431 234.628 36.0159 238.101 36.0159C241.712 36.0159 244.034 37.529 245.065 40.5554C247.301 37.5634 250.258 36.0674 253.938 36.0674C257.412 36.0674 259.647 37.4775 260.644 40.2975C261.195 41.8451 261.47 44.1836 261.47 47.3132V62.1699H255.434V48.2417C255.434 45.6968 255.211 43.9773 254.764 43.0831C254.179 41.9826 253.096 41.4324 251.514 41.4324C249.863 41.4324 248.522 42.0686 247.49 43.3411C246.286 44.7855 245.684 46.9693 245.684 49.8925V62.1699H239.649V48.087C239.649 45.6796 239.46 44.0633 239.081 43.2379C238.531 42.0342 237.396 41.4324 235.677 41.4324C233.888 41.4324 232.444 42.2062 231.344 43.7537C230.381 45.095 229.899 47.124 229.899 49.8409V62.1699H223.864V36.4801ZM289.724 49.583C289.724 53.7786 288.589 57.0457 286.319 59.3843C284.049 61.7228 280.988 62.8921 277.137 62.8921C273.113 62.8921 270 61.7056 267.799 59.3327C265.633 56.9254 264.55 53.5723 264.55 49.2734C264.55 45.0434 265.702 41.7419 268.006 39.3689C270.344 36.9616 273.508 35.7579 277.498 35.7579C281.315 35.7579 284.307 36.9788 286.474 39.4205C288.64 41.8623 289.724 45.2497 289.724 49.583ZM283.636 49.4282C283.636 46.6082 283.069 44.476 281.934 43.0315C280.834 41.5527 279.303 40.8134 277.343 40.8134C275.383 40.8134 273.783 41.5527 272.545 43.0315C271.342 44.476 270.74 46.505 270.74 49.1187C270.74 51.9387 271.325 54.1053 272.494 55.6185C273.663 57.0973 275.228 57.8367 277.188 57.8367C279.148 57.8367 280.713 57.1317 281.882 55.7217C283.052 54.3117 283.636 52.2138 283.636 49.4282ZM305.595 57.2693V62.0668C304.185 62.445 302.689 62.6342 301.107 62.6342C298.631 62.6342 296.877 62.0152 295.845 60.7771C294.882 59.6766 294.4 57.8711 294.4 55.3606V41.3292H290.377V36.4801H294.504V28.1232H300.488V36.4801H305.491V41.3292H300.488V54.1741C300.488 55.4809 300.694 56.4095 301.107 56.9597C301.519 57.4756 302.19 57.7335 303.119 57.7335C303.944 57.7335 304.769 57.5788 305.595 57.2693ZM324.911 53.8646L330.224 55.7217C328.23 60.5364 324.498 62.9437 319.03 62.9437C314.972 62.9437 311.843 61.7228 309.642 59.2811C307.441 56.805 306.34 53.4003 306.34 49.0671C306.34 44.9746 307.475 41.7419 309.745 39.3689C312.015 36.9616 315.024 35.7579 318.772 35.7579C326.442 35.7579 330.31 40.7962 330.379 50.8726H312.427C312.531 53.108 313.167 54.8275 314.336 56.0312C315.505 57.2349 317.104 57.8367 319.134 57.8367C322.16 57.8367 324.086 56.5127 324.911 53.8646ZM312.479 46.5394H324.241C324.137 44.5447 323.587 43.0315 322.59 41.9998C321.627 40.9681 320.303 40.4523 318.618 40.4523C316.933 40.4523 315.54 40.9853 314.439 42.0514C313.339 43.0831 312.685 44.5791 312.479 46.5394Z" fill="#05054E"/>
<path d="M335.737 19.1699H334.119V13.9049H332.379V12.6025H337.486V13.9049H335.737V19.1699ZM345.141 19.1699H343.616C343.616 16.6769 343.628 15.0707 343.653 14.3514C343.523 14.8227 343.042 16.4289 342.211 19.1699H340.825C340.081 16.7079 339.606 15.0986 339.402 14.3421C339.414 14.8816 339.42 16.4909 339.42 19.1699H337.895V12.6025H340.155C340.887 14.8475 341.349 16.3761 341.541 17.1885C341.74 16.3141 342.189 14.7855 342.89 12.6025H345.141V19.1699Z" fill="#05054E"/>
<rect x="360.739" y="31.001" width="71.7901" height="25.3377" rx="4.22295" fill="#05054E"/>
<path d="M372.485 50.3896V36.0572H378.224C379.278 36.0572 380.158 36.2135 380.862 36.5261C381.567 36.8387 382.096 37.2726 382.451 37.8278C382.806 38.3783 382.983 39.0128 382.983 39.7313C382.983 40.2912 382.871 40.7834 382.647 41.2079C382.423 41.6278 382.115 41.9731 381.723 42.2437C381.336 42.5096 380.893 42.6986 380.393 42.8105V42.9505C380.939 42.9738 381.45 43.1278 381.926 43.4124C382.407 43.697 382.796 44.0959 383.095 44.6091C383.393 45.1176 383.543 45.7241 383.543 46.4286C383.543 47.1891 383.354 47.8679 382.976 48.4651C382.603 49.0576 382.05 49.5265 381.317 49.8718C380.585 50.217 379.682 50.3896 378.609 50.3896H372.485ZM375.516 47.9123H377.986C378.831 47.9123 379.446 47.7513 379.834 47.4294C380.221 47.1028 380.414 46.6689 380.414 46.1277C380.414 45.7311 380.319 45.3812 380.128 45.078C379.936 44.7747 379.663 44.5368 379.309 44.3642C378.959 44.1915 378.541 44.1052 378.056 44.1052H375.516V47.9123ZM375.516 42.0547H377.762C378.177 42.0547 378.546 41.9824 378.868 41.8378C379.194 41.6885 379.451 41.4785 379.638 41.2079C379.829 40.9373 379.925 40.6131 379.925 40.2352C379.925 39.7173 379.74 39.2997 379.372 38.9825C379.008 38.6652 378.49 38.5066 377.818 38.5066H375.516V42.0547ZM385.514 50.3896V36.0572H395.172V38.5556H388.545V41.9707H394.675V44.4691H388.545V47.8913H395.2V50.3896H385.514ZM397.035 38.5556V36.0572H408.806V38.5556H404.418V50.3896H401.423V38.5556H397.035ZM411.464 50.3896H408.217L413.165 36.0572H417.07L422.01 50.3896H418.763L415.173 39.3324H415.061L411.464 50.3896ZM411.261 44.7561H418.931V47.1215H411.261V44.7561Z" fill="white"/>
</g>
<defs>
<filter id="filter0_d_96_138" x="0.98157" y="0" width="473.08" height="98.3005" filterUnits="userSpaceOnUse" color-interpolation-filters="sRGB">
<feFlood flood-opacity="0" result="BackgroundImageFix"/>
<feColorMatrix in="SourceAlpha" type="matrix" values="0 0 0 0 0 0 0 0 0 0 0 0 0 0 0 0 0 0 127 0" result="hardAlpha"/>
<feOffset dy="5.48083"/>
<feGaussianBlur stdDeviation="2.74042"/>
<feComposite in2="hardAlpha" operator="out"/>
<feColorMatrix type="matrix" values="0 0 0 0 0 0 0 0 0 0 0 0 0 0 0 0 0 0 0.05 0"/>
<feBlend mode="normal" in2="BackgroundImageFix" result="effect1_dropShadow_96_138"/>
<feBlend mode="normal" in="SourceGraphic" in2="effect1_dropShadow_96_138" result="shape"/>
</filter>
</defs>
</svg>
