<svg width="500" height="500" viewBox="0 0 500 500" fill="none" xmlns="http://www.w3.org/2000/svg">
<path d="M251.155 387.611L253.605 387.64C301.727 388.519 347.781 406.978 383.141 439.384C374.26 456.34 356.498 467.913 336.03 467.913H163.976C143.507 467.913 125.743 456.341 116.862 439.384C153.427 405.874 201.376 387.32 251.155 387.611Z" fill="#05054E"/>
<path d="M170.257 333.91C153.369 339.281 137.056 346.347 121.572 355.005C131.277 342.19 146.658 333.91 163.973 333.91H170.257Z" fill="#05054E"/>
<path d="M336.03 333.91C353.344 333.91 368.723 342.19 378.428 355.005C362.951 346.351 346.641 339.282 329.751 333.91H336.03Z" fill="#05054E"/>
<path d="M197.617 349.7C197.887 349.64 198.155 349.578 198.425 349.519L201.308 348.904C200.075 349.158 198.845 349.426 197.617 349.7Z" fill="#05054E"/>
<path d="M245.435 343.972L242.45 344.048C243.443 344.016 244.44 343.991 245.435 343.972L248.42 343.933C247.424 343.94 246.429 343.953 245.435 343.972Z" fill="#05054E"/>
<path d="M251.155 146.315L253.605 146.344C292.606 147.056 330.247 159.319 361.939 181.192C354.273 185.481 345.438 187.932 336.03 187.932H163.976C154.566 187.932 145.728 185.482 138.061 181.192C171.069 158.41 210.501 146.077 251.155 146.315Z" fill="#05054E"/>
<path d="M336.03 32.0869C365.385 32.0869 389.183 55.8846 389.183 85.2405V120.063C349.112 95.089 302.729 81.1558 254.809 80.2807L251.544 80.2418C201.423 79.9483 152.693 93.9661 110.82 120.063V85.2405C110.82 55.885 134.618 32.0876 163.973 32.0869H336.03Z" fill="#05054E"/>
<path d="M197.617 108.404C197.887 108.344 198.155 108.282 198.425 108.223L201.308 107.608C200.075 107.862 198.845 108.13 197.617 108.404Z" fill="#05054E"/>
<path d="M245.435 102.676L242.45 102.752C243.443 102.72 244.44 102.695 245.435 102.676L248.42 102.637C247.424 102.644 246.429 102.657 245.435 102.676Z" fill="#05054E"/>
<path d="M349.816 173.463C364.446 182.057 378.028 192.573 390.162 204.849L391.768 206.492C423.599 239.458 442.836 282.374 446.443 327.759C445.846 350.121 432.931 369.409 414.229 379.078C369.087 343.016 313.085 322.641 254.809 321.577L251.544 321.538C191.059 321.184 132.6 341.671 85.7742 379.078C67.0709 369.408 54.153 350.12 53.5576 327.756C57.2888 280.803 77.7491 236.548 111.476 203.214L113.226 201.506C124.486 190.65 136.907 181.264 150.187 173.463H349.816Z" fill="#05054E"/>
<path d="M197.617 349.7C197.887 349.64 198.155 349.578 198.425 349.519L201.308 348.904C200.075 349.158 198.845 349.426 197.617 349.7Z" fill="#05054E"/>
<path d="M245.435 343.972L242.45 344.048C243.443 344.016 244.44 343.991 245.435 343.972L248.42 343.933C247.424 343.94 246.429 343.953 245.435 343.972Z" fill="#05054E"/>
</svg>
