<svg width="305" height="73" viewBox="0 0 305 73" fill="none" xmlns="http://www.w3.org/2000/svg">
<path d="M34.1769 54.7219L34.4959 54.7256C40.7603 54.8401 46.7555 57.243 51.3586 61.4616C50.2025 63.6689 47.8903 65.1753 45.2257 65.1753H22.8281C20.1636 65.1753 17.8511 63.6689 16.6949 61.4616C21.4549 57.0993 27.6968 54.684 34.1769 54.7219Z" fill="#6150FF"/>
<path d="M23.6458 47.7312C21.4474 48.4304 19.3238 49.3502 17.3081 50.4773C18.5715 48.809 20.5738 47.7312 22.8278 47.7312H23.6458Z" fill="#6150FF"/>
<path d="M45.2257 47.7312C47.4797 47.7312 49.4817 48.8091 50.7451 50.4773C48.7303 49.3507 46.6071 48.4305 44.4084 47.7312H45.2257Z" fill="#6150FF"/>
<path d="M27.2075 49.7867C27.2426 49.7789 27.2775 49.7708 27.3126 49.7631L27.688 49.683C27.5274 49.7161 27.3674 49.751 27.2075 49.7867Z" fill="#6150FF"/>
<path d="M33.4323 49.0411L33.0438 49.0509C33.1731 49.0468 33.3028 49.0435 33.4323 49.0411L33.8208 49.036C33.6912 49.0368 33.5617 49.0386 33.4323 49.0411Z" fill="#6150FF"/>
<path d="M34.1769 23.3104L34.4959 23.3142C39.573 23.4069 44.473 25.0032 48.5986 27.8506C47.6006 28.4089 46.4506 28.7281 45.2257 28.7281H22.8281C21.6031 28.7281 20.4527 28.4091 19.4546 27.8506C23.7516 24.8849 28.8847 23.2795 34.1769 23.3104Z" fill="#6150FF"/>
<path d="M45.2257 8.44043C49.0472 8.44043 52.1452 11.5384 52.1452 15.3599V19.893C46.9287 16.6419 40.8908 14.8281 34.6527 14.7142L34.2276 14.7091C27.7029 14.6709 21.3593 16.4957 15.9084 19.893V15.3599C15.9084 11.5384 19.0064 8.44052 22.8278 8.44043H45.2257Z" fill="#6150FF"/>
<path d="M27.2075 18.3753C27.2426 18.3675 27.2775 18.3593 27.3126 18.3516L27.688 18.2716C27.5274 18.3047 27.3674 18.3396 27.2075 18.3753Z" fill="#6150FF"/>
<path d="M33.4323 17.6296L33.0438 17.6394C33.1731 17.6354 33.3028 17.6321 33.4323 17.6296L33.8208 17.6246C33.6912 17.6254 33.5617 17.6272 33.4323 17.6296Z" fill="#6150FF"/>
<path d="M47.0205 26.8445C48.925 27.9632 50.693 29.3321 52.2725 30.9303L52.4817 31.1441C56.6254 35.4355 59.1296 41.0223 59.5991 46.9304C59.5215 49.8415 57.8402 52.3523 55.4055 53.611C49.529 48.9166 42.2389 46.2642 34.6527 46.1256L34.2276 46.1206C26.3538 46.0745 18.7437 48.7414 12.648 53.611C10.2132 52.3522 8.5316 49.8413 8.4541 46.9301C8.93982 40.8178 11.6033 35.0568 15.9938 30.7174L16.2216 30.4951C17.6874 29.0818 19.3043 27.8599 21.0331 26.8445H47.0205Z" fill="#6150FF"/>
<path d="M27.2075 49.7867C27.2426 49.7789 27.2775 49.7708 27.3126 49.7631L27.688 49.683C27.5274 49.7161 27.3674 49.751 27.2075 49.7867Z" fill="#6150FF"/>
<path d="M33.4323 49.0411L33.0438 49.0509C33.1731 49.0468 33.3028 49.0435 33.4323 49.0411L33.8208 49.036C33.6912 49.0368 33.5617 49.0386 33.4323 49.0411Z" fill="#6150FF"/>
<path d="M89.3441 55.3076H82.8443V18.888H97.8558C102.499 18.888 105.852 19.6274 107.915 21.1062C110.563 22.9632 111.887 25.938 111.887 30.0305C111.887 34.6389 110.34 37.82 107.244 39.5739C104.837 40.9151 101.226 41.5858 96.4114 41.5858H89.3441V55.3076ZM89.3441 36.0145H95.8955C99.4722 36.0145 101.914 35.5674 103.221 34.6733C104.459 33.7791 105.078 32.2487 105.078 30.0821C105.078 28.1218 104.459 26.6602 103.221 25.6973C102.533 25.2158 101.69 24.8891 100.693 24.7172C99.7301 24.5452 98.2685 24.4592 96.3082 24.4592H89.3441V36.0145ZM118.914 55.3076H112.878V29.6178H118.656V33.5899C120.238 30.7355 122.611 29.3083 125.775 29.3083C126.497 29.3083 127.236 29.4115 127.993 29.6178V35.705C127.064 35.2235 126.101 34.9828 125.104 34.9828C123.041 34.9828 121.424 35.8253 120.255 37.5105C119.361 38.8173 118.914 40.7604 118.914 43.3397V55.3076ZM135.956 29.6178V55.3076H129.869V29.6178H135.956ZM135.956 24.5624H129.818V18.888H135.956V24.5624ZM163.051 55.3076H157.016V40.554C157.016 38.4218 156.706 36.9086 156.087 36.0145C155.434 35.0515 154.282 34.5701 152.631 34.5701C150.842 34.5701 149.381 35.3267 148.246 36.8399C147.249 38.1467 146.75 40.1757 146.75 42.927V55.3076H140.714V29.6178H146.698V33.4352C148.727 30.5808 151.565 29.1536 155.21 29.1536C158.133 29.1536 160.265 30.1681 161.607 32.1971C162.57 33.6415 163.051 35.9801 163.051 39.2128V55.3076ZM180.014 50.407V55.2044C178.604 55.5827 177.108 55.7719 175.526 55.7719C173.05 55.7719 171.296 55.1529 170.264 53.9148C169.301 52.8143 168.82 51.0088 168.82 48.4983V34.4669H164.796V29.6178H168.923V21.2609H174.907V29.6178H179.911V34.4669H174.907V47.3118C174.907 48.6186 175.113 49.5472 175.526 50.0974C175.939 50.6133 176.609 50.8712 177.538 50.8712C178.363 50.8712 179.189 50.7165 180.014 50.407ZM182.152 29.6178H188.136V33.4352C190.165 30.5808 192.917 29.1536 196.39 29.1536C200.001 29.1536 202.323 30.6667 203.354 33.6931C205.59 30.7011 208.547 29.2051 212.227 29.2051C215.7 29.2051 217.936 30.6152 218.933 33.4352C219.483 34.9828 219.759 37.3213 219.759 40.4509V55.3076H213.723V41.3794C213.723 38.8345 213.499 37.115 213.052 36.2208C212.468 35.1203 211.384 34.5701 209.802 34.5701C208.152 34.5701 206.81 35.2063 205.779 36.4788C204.575 37.9232 203.973 40.107 203.973 43.0302V55.3076H197.938V41.2247C197.938 38.8173 197.749 37.201 197.37 36.3756C196.82 35.1719 195.685 34.5701 193.966 34.5701C192.177 34.5701 190.733 35.3439 189.632 36.8914C188.669 38.2327 188.188 40.2617 188.188 42.9786V55.3076H182.152V29.6178ZM248.012 42.7207C248.012 46.9163 246.877 50.1834 244.608 52.522C242.338 54.8605 239.277 56.0298 235.425 56.0298C231.402 56.0298 228.289 54.8433 226.088 52.4704C223.922 50.063 222.838 46.71 222.838 42.4111C222.838 38.1811 223.99 34.8796 226.295 32.5066C228.633 30.0993 231.797 28.8956 235.786 28.8956C239.604 28.8956 242.596 30.1165 244.762 32.5582C246.929 35 248.012 38.3874 248.012 42.7207ZM241.925 42.5659C241.925 39.7459 241.358 37.6136 240.223 36.1692C239.122 34.6904 237.592 33.951 235.632 33.951C233.671 33.951 232.072 34.6904 230.834 36.1692C229.631 37.6136 229.029 39.6427 229.029 42.2564C229.029 45.0764 229.613 47.243 230.783 48.7562C231.952 50.235 233.517 50.9744 235.477 50.9744C237.437 50.9744 239.002 50.2694 240.171 48.8594C241.341 47.4494 241.925 45.3515 241.925 42.5659ZM263.883 50.407V55.2044C262.473 55.5827 260.977 55.7719 259.395 55.7719C256.919 55.7719 255.165 55.1529 254.134 53.9148C253.171 52.8143 252.689 51.0088 252.689 48.4983V34.4669H248.666V29.6178H252.792V21.2609H258.776V29.6178H263.78V34.4669H258.776V47.3118C258.776 48.6186 258.983 49.5472 259.395 50.0974C259.808 50.6133 260.479 50.8712 261.407 50.8712C262.233 50.8712 263.058 50.7165 263.883 50.407ZM283.2 47.0023L288.513 48.8594C286.519 53.6741 282.787 56.0814 277.319 56.0814C273.261 56.0814 270.132 54.8605 267.931 52.4188C265.73 49.9427 264.629 46.538 264.629 42.2048C264.629 38.1123 265.764 34.8796 268.034 32.5066C270.303 30.0993 273.313 28.8956 277.061 28.8956C284.73 28.8956 288.599 33.9339 288.668 44.0103H270.716C270.819 46.2457 271.456 47.9652 272.625 49.1689C273.794 50.3726 275.393 50.9744 277.422 50.9744C280.449 50.9744 282.375 49.6504 283.2 47.0023ZM270.768 39.6771H282.529C282.426 37.6824 281.876 36.1692 280.879 35.1375C279.916 34.1058 278.592 33.5899 276.906 33.5899C275.221 33.5899 273.829 34.123 272.728 35.1891C271.628 36.2208 270.974 37.7168 270.768 39.6771Z" fill="#05054E"/>
<path d="M294.026 12.3076H292.407V7.04255H290.668V5.74023H295.775V7.04255H294.026V12.3076ZM303.43 12.3076H301.904C301.904 9.81462 301.917 8.20843 301.942 7.48906C301.811 7.96037 301.331 9.56656 300.5 12.3076H299.114C298.37 9.84562 297.895 8.23634 297.691 7.47975C297.703 8.01928 297.709 9.62857 297.709 12.3076H296.184V5.74023H298.444C299.176 7.98518 299.638 9.51384 299.83 10.3262C300.029 9.45183 300.478 7.92316 301.179 5.74023H303.43V12.3076Z" fill="#05054E"/>
</svg>
