<svg width="41" height="41" viewBox="0 0 41 41" fill="none" xmlns="http://www.w3.org/2000/svg">
<path d="M0.810547 40.7607L3.62221 30.4891C1.88721 27.4824 0.975547 24.0741 0.977214 20.5791C0.982214 9.65241 9.87388 0.760742 20.7989 0.760742C26.1005 0.762409 31.0772 2.82741 34.8205 6.57408C38.5622 10.3207 40.6222 15.3007 40.6205 20.5974C40.6155 31.5257 31.7239 40.4174 20.7989 40.4174C17.4822 40.4157 14.2139 39.5841 11.3189 38.0041L0.810547 40.7607ZM11.8055 34.4157C14.5989 36.0741 17.2655 37.0674 20.7922 37.0691C29.8722 37.0691 37.2689 29.6791 37.2739 20.5941C37.2772 11.4907 29.9155 4.11074 20.8055 4.10741C11.7189 4.10741 4.32721 11.4974 4.32388 20.5807C4.32221 24.2891 5.40888 27.0657 7.23388 29.9707L5.56888 36.0507L11.8055 34.4157ZM30.7839 25.3091C30.6605 25.1024 30.3305 24.9791 29.8339 24.7307C29.3389 24.4824 26.9039 23.2841 26.4489 23.1191C25.9955 22.9541 25.6655 22.8707 25.3339 23.3674C25.0039 23.8624 24.0539 24.9791 23.7655 25.3091C23.4772 25.6391 23.1872 25.6807 22.6922 25.4324C22.1972 25.1841 20.6005 24.6624 18.7089 22.9741C17.2372 21.6607 16.2422 20.0391 15.9539 19.5424C15.6655 19.0474 15.9239 18.7791 16.1705 18.5324C16.3939 18.3107 16.6655 17.9541 16.9139 17.6641C17.1655 17.3774 17.2472 17.1707 17.4139 16.8391C17.5789 16.5091 17.4972 16.2191 17.3722 15.9707C17.2472 15.7241 16.2572 13.2857 15.8455 12.2941C15.4422 11.3291 15.0339 11.4591 14.7305 11.4441L13.7805 11.4274C13.4505 11.4274 12.9139 11.5507 12.4605 12.0474C12.0072 12.5441 10.7272 13.7407 10.7272 16.1791C10.7272 18.6174 12.5022 20.9724 12.7489 21.3024C12.9972 21.6324 16.2405 26.6357 21.2089 28.7807C22.3905 29.2907 23.3139 29.5957 24.0322 29.8241C25.2189 30.2007 26.2989 30.1474 27.1522 30.0207C28.1039 29.8791 30.0822 28.8224 30.4955 27.6657C30.9089 26.5074 30.9089 25.5157 30.7839 25.3091Z" fill="#6150FF"/>
</svg>
