<svg width="41" height="41" viewBox="0 0 41 41" fill="none" xmlns="http://www.w3.org/2000/svg">
<mask id="mask0_93_33" style="mask-type:alpha" maskUnits="userSpaceOnUse" x="0" y="0" width="41" height="41">
<rect x="0.0454102" y="0.760742" width="40" height="40" fill="#D9D9D9"/>
</mask>
<g mask="url(#mask0_93_33)">
<path d="M26.7121 19.0941V14.0941H21.7121V10.7607H26.7121V5.76074H30.0454V10.7607H35.0454V14.0941H30.0454V19.0941H26.7121ZM33.2954 35.7607C29.8232 35.7607 26.3926 35.0038 23.0037 33.4899C19.6149 31.976 16.5315 29.8302 13.7537 27.0524C10.976 24.2746 8.83013 21.1913 7.31624 17.8024C5.80235 14.4135 5.04541 10.983 5.04541 7.51074C5.04541 7.01074 5.21208 6.59408 5.54541 6.26074C5.87874 5.92741 6.29541 5.76074 6.79541 5.76074H13.5454C13.9343 5.76074 14.2815 5.89269 14.5871 6.15658C14.8926 6.42046 15.0732 6.73296 15.1287 7.09408L16.2121 12.9274C16.2676 13.3719 16.2537 13.7469 16.1704 14.0524C16.0871 14.358 15.9343 14.6219 15.7121 14.8441L11.6704 18.9274C12.226 19.9552 12.8857 20.9482 13.6496 21.9066C14.4135 22.8649 15.2537 23.7885 16.1704 24.6774C17.0315 25.5385 17.9343 26.3371 18.8787 27.0732C19.8232 27.8094 20.8232 28.483 21.8787 29.0941L25.7954 25.1774C26.0454 24.9274 26.3718 24.7399 26.7746 24.6149C27.1774 24.4899 27.5732 24.4552 27.9621 24.5107L33.7121 25.6774C34.101 25.7885 34.4204 25.9899 34.6704 26.2816C34.9204 26.5732 35.0454 26.8996 35.0454 27.2607V34.0107C35.0454 34.5107 34.8787 34.9274 34.5454 35.2607C34.2121 35.5941 33.7954 35.7607 33.2954 35.7607ZM10.0871 15.7607L12.8371 13.0107L12.1287 9.09408H8.42041C8.5593 10.233 8.75374 11.358 9.00374 12.4691C9.25374 13.5802 9.61485 14.6774 10.0871 15.7607ZM25.0037 30.6774C26.0871 31.1496 27.1912 31.5246 28.3162 31.8024C29.4412 32.0802 30.5732 32.2607 31.7121 32.3441V28.6774L27.7954 27.8857L25.0037 30.6774Z" fill="#F5F5FF"/>
</g>
</svg>
